<svg width="25" height="22" viewBox="0 0 25 22" fill="none" xmlns="http://www.w3.org/2000/svg">
<path d="M24.9634 3.18843C24.3184 4.07923 23.5387 4.85628 22.6544 5.48959C22.6544 5.72229 22.6544 5.95499 22.6544 6.20062C22.6615 10.4264 21.0311 14.4785 18.1286 17.4483C15.2262 20.4181 11.2946 22.0574 7.21514 21.9985C4.85673 22.0066 2.52851 21.4491 0.412877 20.3696C0.298802 20.318 0.225225 20.2011 0.225658 20.0722V19.93C0.225658 19.7444 0.370947 19.5939 0.55017 19.5939C2.86844 19.5148 5.104 18.6826 6.94055 17.2152C4.8422 17.1714 2.95422 15.8845 2.08536 13.9056C2.04147 13.7975 2.05514 13.6736 2.12142 13.5785C2.1877 13.4835 2.29701 13.4311 2.40987 13.4402C3.04761 13.5066 3.69172 13.4451 4.30702 13.2592C1.99061 12.7614 0.250092 10.7705 0.000996436 8.33372C-0.00785677 8.21682 0.0427428 8.10359 0.134516 8.03494C0.226289 7.96629 0.345969 7.95213 0.45032 7.99759C1.07194 8.28156 1.74298 8.43113 2.42235 8.43714C0.392633 7.05791 -0.484072 4.43458 0.288065 2.05077C0.367767 1.81914 0.559252 1.64802 0.792153 1.6003C1.02505 1.55258 1.26502 1.63531 1.42386 1.81807C4.16284 4.83605 7.92624 6.63445 11.9206 6.83408C11.8182 6.41141 11.7679 5.97704 11.7708 5.5413C11.8081 3.25646 13.1737 1.22109 15.2281 0.388055C17.2825 -0.444977 19.6192 0.0891999 21.1442 1.7405C22.1837 1.53548 23.1887 1.17398 24.1272 0.667492C24.1959 0.623058 24.2831 0.623058 24.3519 0.667492C24.3948 0.738696 24.3948 0.82899 24.3519 0.900193C23.8973 1.97786 23.1294 2.88174 22.1552 3.48577C23.0083 3.38334 23.8464 3.175 24.6514 2.86523C24.7192 2.81746 24.8083 2.81746 24.8761 2.86523C24.9328 2.89213 24.9753 2.94356 24.9921 3.00583C25.009 3.06811 24.9985 3.1349 24.9634 3.18843Z" fill="#9A9A9A"/>
</svg>
