<svg width="28" height="23" viewBox="0 0 28 23" fill="none" xmlns="http://www.w3.org/2000/svg">
<path fill-rule="evenodd" clip-rule="evenodd" d="M25.1567 0.296143H3.27067C1.75975 0.296143 0.534912 1.52953 0.534912 3.051V19.5801C0.534912 21.1016 1.75975 22.335 3.27067 22.335H25.1567C26.6676 22.335 27.8925 21.1016 27.8925 19.5801V3.051C27.8925 1.52953 26.6676 0.296143 25.1567 0.296143ZM25.1568 3.05169V7.04622L15.1029 14.1399C14.5682 14.5136 13.8593 14.5136 13.3247 14.1399L3.27075 7.04622V3.05169H25.1568ZM3.27075 9.93923V19.5813H25.1568V9.93923L16.4708 16.055C15.1153 17.0092 13.3123 17.0092 11.9568 16.055L3.27075 9.93923Z" fill="#9A9A9A"/>
</svg>
