<svg width="24" height="24" viewBox="0 0 24 24" fill="none" xmlns="http://www.w3.org/2000/svg">
<path fill-rule="evenodd" clip-rule="evenodd" d="M17.2645 0.296143H6.96515C3.41005 0.296143 0.528076 3.19823 0.528076 6.77814V17.1493C0.528076 20.7293 3.41005 23.6313 6.96515 23.6313H17.2645C20.8196 23.6313 23.7015 20.7293 23.7015 17.1493V6.77814C23.7015 3.19823 20.8196 0.296143 17.2645 0.296143ZM21.4488 17.1498C21.4417 19.4738 19.5725 21.356 17.2647 21.3631H6.96535C4.65747 21.356 2.78832 19.4738 2.78125 17.1498V6.77857C2.78832 4.45458 4.65747 2.57238 6.96535 2.56526H17.2647C19.5725 2.57238 21.4417 4.45458 21.4488 6.77857V17.1498ZM18.23 7.10107C18.9411 7.10107 19.5175 6.52066 19.5175 5.80469C19.5175 5.08872 18.9411 4.50831 18.23 4.50831C17.519 4.50831 16.9426 5.08872 16.9426 5.80469C16.9426 6.52066 17.519 7.10107 18.23 7.10107ZM12.1149 6.13066C8.91531 6.13066 6.32153 8.74252 6.32153 11.9644C6.32153 15.1863 8.91531 17.7982 12.1149 17.7982C15.3145 17.7982 17.9083 15.1863 17.9083 11.9644C17.9117 10.4162 17.3024 8.93031 16.2152 7.83552C15.128 6.74072 13.6524 6.1272 12.1149 6.13066ZM8.57446 11.9649C8.57446 13.9338 10.1595 15.53 12.1149 15.53C14.0702 15.53 15.6552 13.9338 15.6552 11.9649C15.6552 9.99591 14.0702 8.39976 12.1149 8.39976C10.1595 8.39976 8.57446 9.99591 8.57446 11.9649Z" fill="#9A9A9A"/>
</svg>
