<svg width="26" height="25" viewBox="0 0 26 25" fill="none" xmlns="http://www.w3.org/2000/svg">
<path fill-rule="evenodd" clip-rule="evenodd" d="M13.088 3.12448C14.5617 1.43387 16.6265 0.439688 18.8119 0.368408C22.6756 0.368408 25.8078 3.64698 25.8078 7.69131C25.8078 12.4795 20.7227 17.727 17.673 20.8743C17.3984 21.1576 17.1403 21.424 16.9039 21.6714L14.0038 24.7071C13.8251 24.8944 13.5826 24.9998 13.3297 25H12.8463C12.5934 24.9998 12.3509 24.8944 12.1722 24.7071L9.27204 21.6714C9.03565 21.424 8.77758 21.1576 8.503 20.8743C5.45323 17.727 0.368164 12.4795 0.368164 7.69131C0.368164 3.64698 3.50034 0.368408 7.36407 0.368408C9.54946 0.439688 11.6142 1.43387 13.088 3.12448ZM13.0882 21.897L15.8866 19.0078C18.4687 16.3449 23.2641 11.3654 23.2641 7.69061C23.2641 6.44774 22.7898 5.25635 21.9467 4.38127C21.1035 3.50619 19.9613 3.01993 18.774 3.03059C16.7964 3.22275 15.0114 4.35073 13.9277 6.09289C13.8063 6.2589 13.6187 6.35713 13.4189 6.35917H12.8465C12.5494 6.35833 12.2686 6.2163 12.0834 5.97306C11.0169 4.29511 9.28172 3.21316 7.36429 3.03059C4.90556 3.03059 2.91235 5.11695 2.91235 7.69061C2.91235 11.3654 7.70773 16.3449 10.2899 19.0078L13.0882 21.897Z" fill="#9A9A9A"/>
</svg>
