<svg width="13" height="23" viewBox="0 0 13 23" fill="none" xmlns="http://www.w3.org/2000/svg">
<path d="M12.35 3.83333H8.45C7.73203 3.83333 7.15 4.40541 7.15 5.11111V8.94444H12.35C12.4979 8.94122 12.6381 9.00883 12.726 9.12573C12.8139 9.24263 12.8385 9.39423 12.792 9.53222L11.83 12.3433C11.7413 12.6013 11.4961 12.7758 11.219 12.7778H7.15V22.3611C7.15 22.714 6.85898 23 6.5 23H3.25C2.89101 23 2.6 22.714 2.6 22.3611V12.7778H0.65C0.291015 12.7778 0 12.4917 0 12.1389V9.58333C0 9.23048 0.291015 8.94444 0.65 8.94444H2.6V5.11111C2.6 2.28832 4.92812 0 7.8 0H12.35C12.709 0 13 0.28604 13 0.638889V3.19444C13 3.54729 12.709 3.83333 12.35 3.83333Z" fill="#9A9A9A"/>
</svg>
